<svg width="32" height="30" viewBox="0 0 32 30" fill="none" xmlns="http://www.w3.org/2000/svg">
<path d="M31.4665 0.600042C31.1998 0.333375 30.6665 0.333374 30.2665 0.333374L22.6665 2.60004V29.4L31.0665 27C31.5998 26.8667 31.9998 26.3334 31.9998 25.6667V1.66671C31.9998 1.26671 31.8665 0.866708 31.4665 0.600042Z" fill="#D6B1FF"/>
<path d="M20 2.6001L12 0.600098V27.4001L20 29.4001V2.6001Z" fill="#2EC5CE"/>
<path d="M9.33333 0.600098L0.933334 3.0001C0.400001 3.26676 0 3.8001 0 4.33343V28.3334C0 28.7334 0.133333 29.1334 0.533333 29.4001C0.799999 29.5334 1.06667 29.6668 1.33333 29.6668H1.73333L9.33333 27.4001V0.600098Z" fill="#8C30F5"/>
</svg>
