<svg width="105" height="21" viewBox="0 0 105 21" fill="none" xmlns="http://www.w3.org/2000/svg">
<path d="M2.1236 19.837C1.99251 20.5589 1.64295 20.9243 1.07491 20.9332C0.865169 20.9332 0.677278 20.8752 0.511236 20.7594C0.170412 20.5277 0 20.1534 0 19.6365C0 19.6365 0.795256 13.501 2.38577 1.22979C2.40325 1.09612 2.43383 0.9669 2.47753 0.842139C2.66105 0.405474 2.98003 0.187142 3.43446 0.187142C3.60924 0.187142 3.77528 0.2317 3.93258 0.320815C4.28215 0.52578 4.46567 0.828771 4.48315 1.22979C2.98876 13.198 2.20225 19.4004 2.1236 19.837Z" fill="white"/>
<path d="M12.0206 0.454488C12.108 0.454488 12.1998 0.458943 12.2959 0.467855C13.8077 0.565882 14.5637 1.46149 14.5637 3.15468C14.5637 4.97263 13.8034 6.99554 12.2828 9.22342C11.2865 10.676 10.2335 11.8657 9.1236 12.7925C9.19351 13.3628 9.2809 13.8931 9.38577 14.3832C10.0062 17.4131 11.1205 18.9281 12.7285 18.9281C13.3489 18.9281 13.9388 18.7454 14.4981 18.38C15.5119 17.7116 16.3202 16.5532 16.9232 14.9045C16.495 14.8421 16.1017 14.7129 15.7434 14.5169C14.8171 14 14.3539 13.1623 14.3539 12.0038C14.3539 11.4157 14.5637 10.9032 14.9831 10.4666C15.4551 9.97645 16.01 9.73138 16.6479 9.73138C17.2772 9.73138 17.819 9.90961 18.2734 10.2661C18.8851 10.7562 19.191 11.4335 19.191 12.2979C19.1823 12.6544 19.1779 12.837 19.1779 12.846C19.3265 12.7747 19.51 12.6722 19.7285 12.5385C20.0693 12.3157 20.3533 12.2043 20.5805 12.2043C20.7029 12.2043 20.8252 12.24 20.9476 12.3113C21.236 12.4717 21.3801 12.7257 21.3801 13.0732C21.3801 13.2782 21.3059 13.4742 21.1573 13.6614C20.7553 14.1693 19.9732 14.5481 18.8109 14.7976C18.4176 16.2502 17.7971 17.5201 16.9494 18.6073C15.7522 20.14 14.3976 20.9064 12.8858 20.9064C10.7185 20.8975 9.13233 19.5207 8.12734 16.7759C7.43695 14.8689 7.09176 12.6009 7.09176 9.97199C7.09176 9.8205 7.1005 9.6289 7.11798 9.3972C7.24032 7.52578 7.58552 5.80586 8.15356 4.23743C9.07116 1.71547 10.3602 0.454488 12.0206 0.454488ZM9.21536 8.27435C9.11923 8.99618 9.05805 9.69128 9.03184 10.3596C9.5824 9.79822 10.1373 9.12094 10.6966 8.32782C12.0861 6.35837 12.7809 4.68746 12.7809 3.31509C12.7809 3.24379 12.7634 3.15913 12.7285 3.06111C12.5886 2.669 12.3614 2.47295 12.0468 2.47295C11.339 2.48186 10.7447 2.96308 10.264 3.91661C9.82709 4.80777 9.47753 6.26034 9.21536 8.27435ZM16.8315 11.5894C16.7441 11.5894 16.6523 11.6073 16.5562 11.6429C16.2765 11.7498 16.1367 11.9459 16.1367 12.2311C16.1454 12.739 16.5649 13.0331 17.3951 13.1133C17.3951 13.0509 17.3995 12.9574 17.4082 12.8326C17.4257 12.6454 17.4345 12.5118 17.4345 12.4316C17.4345 12.387 17.4301 12.338 17.4213 12.2845C17.3777 11.8211 17.181 11.5894 16.8315 11.5894Z" fill="white"/>
<path d="M19.3483 19.5162C19.3483 19.5162 19.7197 16.6556 20.4625 10.9344C20.48 10.7829 20.5019 10.6404 20.5281 10.5067C20.6854 9.74029 21.0262 9.3571 21.5506 9.3571C21.6467 9.3571 21.7428 9.36601 21.839 9.38383C22.2409 9.48186 22.4419 9.86951 22.4419 10.5468C22.4419 10.6448 22.4332 10.8141 22.4157 11.0547C22.407 11.2151 22.4026 11.3399 22.4026 11.429C22.4201 11.3934 22.4419 11.3577 22.4682 11.3221C23.1149 10.1547 24.0368 9.57097 25.2341 9.57097C25.6623 9.57097 26.0556 9.70019 26.4139 9.95862C26.9469 10.3596 27.2135 10.8899 27.2135 11.5493C27.2135 11.6563 27.2091 11.9102 27.2004 12.3113C27.1916 13.2202 27.1873 13.9421 27.1873 14.4768C27.1873 16.2947 27.2397 17.3641 27.3446 17.6849C27.3708 17.7562 27.397 17.832 27.4232 17.9122C27.6679 18.5894 28.0131 18.9281 28.4588 18.9281C28.5375 18.9281 28.6248 18.9192 28.721 18.9013C28.9831 18.8479 29.3589 18.6384 29.8483 18.2731C30.329 17.9255 30.7135 17.7518 31.0019 17.7518C31.1155 17.7518 31.2247 17.7829 31.3296 17.8453C31.6005 18.0057 31.736 18.2686 31.736 18.634C31.6835 19.0707 31.3165 19.5519 30.6348 20.0777C29.8308 20.6302 29.0225 20.9064 28.2097 20.9064C27.5543 20.9064 26.9994 20.7237 26.5449 20.3584C25.6099 19.592 25.1423 17.9122 25.1423 15.3189C25.1423 15.1318 25.1467 14.8288 25.1554 14.4099C25.1729 13.9733 25.1816 13.6079 25.1816 13.3138C25.1816 12.3603 25.0768 11.8701 24.867 11.8434C24.8321 11.8434 24.7884 11.8523 24.736 11.8701C24.2378 12.0573 23.5999 13.0687 22.8221 14.9045C22.1404 16.5175 21.7035 17.8587 21.5112 18.9281L21.485 19.3157C21.4588 19.6365 21.3714 19.9306 21.2228 20.198C20.9694 20.6257 20.6548 20.8396 20.279 20.8396C20.1742 20.8396 20.0693 20.8173 19.9644 20.7728C19.5537 20.5767 19.3483 20.1579 19.3483 19.5162Z" fill="white"/>
<path d="M46.2472 0C49.9613 0.017823 51.8533 1.43475 51.9232 4.2508C51.9057 6.63908 51.1192 8.45703 49.5637 9.70465C51.9057 10.4265 53.0812 12.0083 53.0899 14.45C53.0287 15.4392 52.8233 16.3215 52.4738 17.0968C51.294 19.6989 48.5325 21 44.1891 21C43.6648 21 42.8783 20.9688 41.8296 20.9064C41.6199 20.9064 41.4276 20.8485 41.2528 20.7327C40.912 20.4831 40.7416 20.1088 40.7416 19.6098L43.1273 1.20306C43.1361 1.05156 43.171 0.904519 43.2322 0.761935C43.4157 0.360917 43.7303 0.160407 44.176 0.160407C44.9014 0.0534691 45.5918 0 46.2472 0ZM43.9925 11.2686C43.9925 11.2686 43.6648 13.7906 43.0094 18.8345C43.5075 18.8701 43.8964 18.888 44.176 18.888C45.5481 18.888 46.7497 18.7231 47.7809 18.3934C49.922 17.6983 50.9925 16.3838 50.9925 14.45C50.9838 13.1311 50.1273 12.2266 48.4232 11.7365C47.5056 11.487 46.0287 11.331 43.9925 11.2686ZM45.1067 2.04519L44.2416 9.06302C44.53 9.06302 44.7965 9.05411 45.0412 9.03628C48.2397 8.85805 49.839 7.27626 49.839 4.2909C49.8302 3.56015 49.5375 2.99873 48.9607 2.60662C48.3315 2.2056 47.2566 2.00509 45.736 2.00509C45.535 2.00509 45.3252 2.01846 45.1067 2.04519Z" fill="white"/>
<path d="M55.4363 16.7091C55.4363 16.4061 55.4538 16.0853 55.4888 15.7467C55.6723 14.2139 56.1442 12.8549 56.9045 11.6696C57.8308 10.226 58.9451 9.50414 60.2472 9.50414C60.8065 9.50414 61.2959 9.61553 61.7154 9.83832C61.8901 9.62444 62.1305 9.51305 62.4363 9.50414C62.6111 9.50414 62.7204 9.5175 62.764 9.54424C63.1398 9.669 63.3277 10.0477 63.3277 10.6805C63.3277 10.9389 63.284 11.4959 63.1966 12.3514C62.9257 14.8822 62.7903 16.4551 62.7903 17.07C62.7903 17.4799 62.8733 17.8631 63.0393 18.2196C63.284 18.7543 63.6074 19.0216 64.0094 19.0216C64.088 19.0216 64.171 19.0127 64.2584 18.9949C64.5206 18.9414 64.8964 18.7365 65.3858 18.38C65.8664 18.0236 66.2509 17.8453 66.5393 17.8453C66.6529 17.8453 66.7709 17.8854 66.8933 17.9656C67.1467 18.1439 67.2734 18.38 67.2734 18.6741C67.2472 19.1375 66.902 19.6187 66.2378 20.1178C65.4426 20.6881 64.5993 20.9733 63.7079 20.9733C62.6067 20.9644 61.794 20.3985 61.2697 19.2756C61.1473 19.4271 61.0075 19.5786 60.8502 19.7301C59.985 20.5589 59.1067 20.9733 58.2154 20.9733C57.6561 20.9733 57.171 20.8262 56.7603 20.5321C55.8777 19.8727 55.4363 18.5983 55.4363 16.7091ZM61.2041 12.3113C61.2041 12.3113 61.2347 12.0083 61.2959 11.4023C61.1036 11.3043 60.9026 11.2553 60.6929 11.2553C60.5356 11.2553 60.3739 11.2775 60.2079 11.3221C59.3951 11.5538 58.7091 12.3202 58.1498 13.6213C57.6517 14.7887 57.4026 15.9605 57.4026 17.1369C57.4026 17.1814 57.4026 17.226 57.4026 17.2705C57.4288 18.3577 57.6998 18.9013 58.2154 18.9013C58.4863 18.8924 58.8184 18.7409 59.2116 18.4468C59.6136 18.1528 59.9064 17.8765 60.0899 17.6181C60.2035 17.4488 60.3564 16.9542 60.5487 16.1343C60.8983 14.6104 61.1167 13.3361 61.2041 12.3113Z" fill="white"/>
<path d="M67.0112 6.10885C67.02 6.10885 67.0637 6.10885 67.1423 6.10885C67.6317 6.12667 68.073 6.13558 68.4663 6.13558L69.0431 2.00509C69.078 1.72884 69.1217 1.49714 69.1742 1.30999C69.3315 0.721833 69.6504 0.427753 70.1311 0.427753C70.2272 0.427753 70.3233 0.436665 70.4195 0.454488C70.8215 0.552514 71.0225 0.940165 71.0225 1.61744C71.0225 1.83132 70.8477 3.33736 70.4981 6.13558H71.8745C72.1105 6.13558 72.3159 6.1846 72.4906 6.28262C72.7965 6.46976 72.9494 6.74602 72.9494 7.11139C72.9494 7.2718 72.9101 7.4233 72.8315 7.56588C72.6305 7.90452 72.3027 8.07384 71.8483 8.07384H70.2228C69.5412 13.4208 69.2004 16.4195 69.2004 17.07C69.2004 17.4799 69.2834 17.8631 69.4494 18.2196C69.6941 18.7543 70.0175 19.0216 70.4195 19.0216C70.5156 19.0216 70.6161 19.0083 70.721 18.9815C70.9569 18.9192 71.2934 18.7142 71.7303 18.3666C72.1586 18.0191 72.5169 17.8453 72.8052 17.8453C72.9276 17.8453 73.0456 17.8721 73.1592 17.9255C73.4738 18.0859 73.6311 18.331 73.6311 18.6607C73.6049 19.1241 73.2684 19.6053 72.6217 20.1044C71.8352 20.6836 71.0006 20.9733 70.118 20.9733C69.2528 20.9644 68.5449 20.5945 67.9944 19.8638C67.4351 19.0885 67.1554 18.1127 67.1554 16.9363C67.1554 16.6779 67.5006 13.7237 68.191 8.07384H67.0112C66.9588 8.07384 66.9064 8.07384 66.8539 8.07384C66.2509 8.02037 65.9494 7.69955 65.9494 7.11139C65.9494 6.95099 65.9757 6.80395 66.0281 6.67027C66.1854 6.29599 66.5131 6.10885 67.0112 6.10885Z" fill="white"/>
<path d="M72.4906 6.10885C72.4994 6.10885 72.5431 6.10885 72.6217 6.10885C73.1111 6.12667 73.5524 6.13558 73.9457 6.13558L74.5225 2.00509C74.5574 1.72884 74.6011 1.49714 74.6536 1.30999C74.8109 0.721833 75.1298 0.427753 75.6105 0.427753C75.7066 0.427753 75.8027 0.436665 75.8989 0.454488C76.3009 0.552514 76.5019 0.940165 76.5019 1.61744C76.5019 1.83132 76.3271 3.33736 75.9775 6.13558H77.3539C77.5899 6.13558 77.7953 6.1846 77.97 6.28262C78.2759 6.46976 78.4288 6.74602 78.4288 7.11139C78.4288 7.2718 78.3895 7.4233 78.3109 7.56588C78.1099 7.90452 77.7822 8.07384 77.3277 8.07384H75.7022C75.0206 13.4208 74.6798 16.4195 74.6798 17.07C74.6798 17.4799 74.7628 17.8631 74.9288 18.2196C75.1735 18.7543 75.4969 19.0216 75.8989 19.0216C75.995 19.0216 76.0955 19.0083 76.2004 18.9815C76.4363 18.9192 76.7728 18.7142 77.2097 18.3666C77.638 18.0191 77.9963 17.8453 78.2846 17.8453C78.407 17.8453 78.525 17.8721 78.6386 17.9255C78.9532 18.0859 79.1105 18.331 79.1105 18.6607C79.0843 19.1241 78.7478 19.6053 78.1011 20.1044C77.3146 20.6836 76.48 20.9733 75.5974 20.9733C74.7322 20.9644 74.0243 20.5945 73.4738 19.8638C72.9145 19.0885 72.6348 18.1127 72.6348 16.9363C72.6348 16.6779 72.98 13.7237 73.6704 8.07384H72.4906C72.4382 8.07384 72.3858 8.07384 72.3333 8.07384C71.7303 8.02037 71.4288 7.69955 71.4288 7.11139C71.4288 6.95099 71.4551 6.80395 71.5075 6.67027C71.6648 6.29599 71.9925 6.10885 72.4906 6.10885Z" fill="white"/>
<path d="M83.5019 13.6747C83.5718 13.1311 83.6592 12.1108 83.764 10.6136C83.7728 10.5423 83.7815 10.4755 83.7903 10.4131C83.8951 9.85169 84.2316 9.56206 84.7996 9.54424C84.8258 9.54424 84.8564 9.54869 84.8914 9.55761C85.3633 9.61108 85.5993 9.98536 85.5993 10.6805C85.5993 10.8587 85.5818 11.126 85.5468 11.4825C85.5293 11.6429 85.5162 11.7632 85.5075 11.8434C85.3589 14.2584 85.2846 15.7868 85.2846 16.4284C85.2846 16.6601 85.2978 16.8918 85.324 17.1235C85.4638 18.2553 85.8527 18.8211 86.4906 18.8211C86.578 18.8211 86.6698 18.8122 86.7659 18.7944C87.0194 18.732 87.3908 18.5226 87.8802 18.1661C88.3608 17.8097 88.7453 17.6314 89.0337 17.6314C89.1473 17.6314 89.2566 17.6671 89.3614 17.7384C89.6323 17.9077 89.7678 18.1706 89.7678 18.5271C89.7678 18.5538 89.7634 18.5894 89.7547 18.634C89.6935 19.0617 89.3308 19.5029 88.6667 19.9574C87.8539 20.5188 87.0456 20.7995 86.2416 20.7995C85.1579 20.7906 84.3845 20.2871 83.9213 19.289C83.1523 20.2514 82.0993 20.7371 80.7622 20.746C80.4476 20.746 80.1504 20.7059 79.8708 20.6257C78.3415 20.1534 77.5768 18.4379 77.5768 15.4793C77.5768 14.0535 77.7297 12.6187 78.0356 11.175C78.0531 11.1038 78.0705 11.028 78.088 10.9478C78.3589 9.96754 78.7434 9.4774 79.2416 9.4774C79.8621 9.48631 80.181 9.83386 80.1985 10.5201C80.1985 10.6626 80.1592 10.979 80.0805 11.4691C79.7747 13.4653 79.6217 14.909 79.6217 15.8001C79.6217 17.6537 80.0849 18.5894 81.0112 18.6073C82.2085 18.5983 83.0387 16.9542 83.5019 13.6747Z" fill="white"/>
<path d="M88.1685 6.10885C88.1773 6.10885 88.221 6.10885 88.2996 6.10885C88.789 6.12667 89.2303 6.13558 89.6236 6.13558L90.2004 2.00509C90.2353 1.72884 90.279 1.49714 90.3315 1.30999C90.4888 0.721833 90.8077 0.427753 91.2884 0.427753C91.3845 0.427753 91.4807 0.436665 91.5768 0.454488C91.9788 0.552514 92.1798 0.940165 92.1798 1.61744C92.1798 1.83132 92.005 3.33736 91.6554 6.13558H93.0318C93.2678 6.13558 93.4732 6.1846 93.6479 6.28262C93.9538 6.46976 94.1067 6.74602 94.1067 7.11139C94.1067 7.2718 94.0674 7.4233 93.9888 7.56588C93.7878 7.90452 93.4601 8.07384 93.0056 8.07384H91.3802C90.6985 13.4208 90.3577 16.4195 90.3577 17.07C90.3577 17.4799 90.4407 17.8631 90.6067 18.2196C90.8514 18.7543 91.1748 19.0216 91.5768 19.0216C91.6729 19.0216 91.7734 19.0083 91.8783 18.9815C92.1142 18.9192 92.4507 18.7142 92.8876 18.3666C93.3159 18.0191 93.6742 17.8453 93.9626 17.8453C94.0849 17.8453 94.2029 17.8721 94.3165 17.9255C94.6311 18.0859 94.7884 18.331 94.7884 18.6607C94.7622 19.1241 94.4257 19.6053 93.779 20.1044C92.9925 20.6836 92.1579 20.9733 91.2753 20.9733C90.4101 20.9644 89.7022 20.5945 89.1517 19.8638C88.5924 19.0885 88.3127 18.1127 88.3127 16.9363C88.3127 16.6779 88.6579 13.7237 89.3483 8.07384H88.1685C88.1161 8.07384 88.0637 8.07384 88.0112 8.07384C87.4082 8.02037 87.1067 7.69955 87.1067 7.11139C87.1067 6.95099 87.133 6.80395 87.1854 6.67027C87.3427 6.29599 87.6704 6.10885 88.1685 6.10885Z" fill="white"/>
<path d="M93.1629 16.7091C93.1629 16.4061 93.1804 16.0853 93.2154 15.7467C93.3989 14.2139 93.8708 12.8549 94.6311 11.6696C95.5574 10.226 96.6717 9.50414 97.9738 9.50414C98.5331 9.50414 99.0225 9.61553 99.442 9.83832C99.6167 9.62444 99.8571 9.51305 100.163 9.50414C100.338 9.50414 100.447 9.5175 100.491 9.54424C100.866 9.669 101.054 10.0477 101.054 10.6805C101.054 10.9389 101.011 11.4959 100.923 12.3514C100.652 14.8822 100.517 16.4551 100.517 17.07C100.517 17.4799 100.6 17.8631 100.766 18.2196C101.011 18.7543 101.334 19.0216 101.736 19.0216C101.815 19.0216 101.898 19.0127 101.985 18.9949C102.247 18.9414 102.623 18.7365 103.112 18.38C103.593 18.0236 103.978 17.8453 104.266 17.8453C104.38 17.8453 104.498 17.8854 104.62 17.9656C104.873 18.1439 105 18.38 105 18.6741C104.974 19.1375 104.629 19.6187 103.964 20.1178C103.169 20.6881 102.326 20.9733 101.434 20.9733C100.333 20.9644 99.5206 20.3985 98.9963 19.2756C98.8739 19.4271 98.7341 19.5786 98.5768 19.7301C97.7116 20.5589 96.8333 20.9733 95.942 20.9733C95.3827 20.9733 94.8976 20.8262 94.4869 20.5321C93.6042 19.8727 93.1629 18.5983 93.1629 16.7091ZM98.9307 12.3113C98.9307 12.3113 98.9613 12.0083 99.0225 11.4023C98.8302 11.3043 98.6292 11.2553 98.4195 11.2553C98.2622 11.2553 98.1005 11.2775 97.9345 11.3221C97.1217 11.5538 96.4357 12.3202 95.8764 13.6213C95.3783 14.7887 95.1292 15.9605 95.1292 17.1369C95.1292 17.1814 95.1292 17.226 95.1292 17.2705C95.1554 18.3577 95.4263 18.9013 95.942 18.9013C96.2129 18.8924 96.5449 18.7409 96.9382 18.4468C97.3402 18.1528 97.633 17.8765 97.8165 17.6181C97.9301 17.4488 98.083 16.9542 98.2753 16.1343C98.6248 14.6104 98.8433 13.3361 98.9307 12.3113Z" fill="white"/>
</svg>
